<svg version="1.1" xmlns="http://www.w3.org/2000/svg" xmlns:xlink="http://www.w3.org/1999/xlink" width="2000.000000pt" height="2000.000000pt" viewBox="0,0,256,256"><g fill="#ce2524" fill-rule="nonzero" stroke="none" stroke-width="1" stroke-linecap="butt" stroke-linejoin="miter" stroke-miterlimit="10" stroke-dasharray="" stroke-dashoffset="0" font-family="none" font-weight="none" font-size="none" text-anchor="none" style="mix-blend-mode: normal"><g transform="translate(-0.00287,11.35623) scale(0.128,0.128)"><g transform="translate(0,2000) scale(0.1,-0.1)"><path d="M9830,17755c-266,-42 -504,-186 -671,-408c-60,-79 -113,-182 -489,-952c-65,-132 -193,-393 -285,-580c-92,-187 -218,-443 -280,-570c-62,-126 -177,-360 -255,-520c-78,-159 -208,-423 -287,-585c-79,-162 -149,-298 -156,-302c-7,-4 -32,-10 -57,-13c-25,-3 -74,-10 -110,-16c-101,-15 -349,-50 -415,-59c-66,-9 -186,-26 -280,-40c-33,-5 -94,-13 -135,-19c-41,-6 -185,-26 -320,-46c-135,-20 -274,-40 -310,-45c-74,-9 -324,-46 -415,-60c-72,-11 -126,-19 -495,-71c-291,-42 -349,-50 -480,-68c-41,-6 -151,-22 -245,-36c-161,-24 -219,-32 -387,-55c-250,-33 -462,-134 -626,-298c-158,-158 -255,-344 -298,-571c-19,-101 -14,-320 9,-411c38,-146 103,-285 180,-387c61,-81 160,-181 717,-718c74,-72 227,-220 340,-329c113,-110 270,-263 350,-340c185,-180 408,-396 840,-817c190,-185 389,-379 443,-430l98,-94l-10,-65c-10,-66 -60,-357 -87,-510c-8,-47 -19,-110 -24,-140c-9,-56 -36,-212 -69,-400c-11,-58 -22,-121 -25,-140c-3,-19 -10,-62 -16,-95c-6,-33 -15,-85 -20,-115c-5,-30 -21,-120 -35,-200c-14,-80 -30,-172 -35,-205c-6,-33 -15,-85 -20,-115c-6,-30 -15,-80 -20,-110c-9,-56 -53,-312 -71,-410c-6,-30 -14,-80 -19,-110c-5,-30 -16,-95 -25,-145c-9,-49 -20,-115 -25,-145c-5,-30 -14,-82 -20,-115c-6,-33 -15,-85 -20,-115c-8,-53 -34,-202 -66,-380c-9,-47 -20,-110 -25,-140c-60,-344 36,-674 266,-918c61,-65 202,-182 218,-182c4,0 24,-10 45,-23c48,-30 180,-82 257,-101c234,-58 517,-25 719,84c28,15 139,73 246,130c107,56 231,122 275,145c44,23 130,68 190,100c61,32 146,77 190,100c81,43 163,86 360,190c61,32 142,75 180,95c39,20 120,63 180,95c61,32 142,74 180,95c39,21 120,63 180,95c61,32 146,77 190,100c44,24 197,105 340,180c143,76 294,156 335,178c97,52 207,109 352,186l117,61l118,-61c65,-34 145,-76 178,-94c33,-18 119,-63 190,-100c72,-37 135,-71 140,-75c6,-4 82,-44 170,-90c88,-45 174,-90 190,-100c17,-10 82,-44 145,-77c200,-105 313,-165 375,-198c33,-18 114,-61 180,-95c65,-34 151,-79 190,-100c38,-20 120,-63 180,-95c61,-32 142,-74 180,-95c70,-37 160,-85 370,-195c61,-32 146,-77 190,-100c44,-23 168,-89 275,-145c107,-57 218,-115 245,-130c151,-80 400,-129 565,-110c155,18 318,68 412,127c21,13 41,23 45,23c16,0 157,117 218,182c230,244 326,574 266,918c-12,66 -46,263 -67,380c-9,47 -19,110 -24,140c-8,50 -20,119 -66,380c-8,47 -19,110 -24,140c-5,30 -13,80 -19,110c-47,262 -103,580 -111,640c-11,73 -50,291 -55,310c-3,8 -9,44 -14,80c-6,36 -15,92 -21,125c-6,33 -15,85 -20,115c-7,49 -44,260 -71,410c-6,30 -14,80 -19,110c-11,66 -57,332 -71,410c-13,69 -25,145 -39,235l-11,70l118,114c333,322 444,430 613,595c102,100 258,251 345,336c184,178 398,385 675,655c107,105 337,327 510,495c521,503 532,516 612,671c89,172 123,327 115,524c-7,157 -31,263 -93,393c-114,245 -279,411 -519,523c-114,53 -215,77 -465,109c-36,4 -144,20 -240,34c-96,15 -209,31 -250,37c-111,15 -176,25 -375,54c-172,25 -230,34 -382,54c-101,14 -489,69 -558,80c-33,6 -94,15 -135,21c-126,18 -641,91 -705,100c-33,5 -96,14 -140,20c-44,6 -107,15 -140,20c-229,31 -367,52 -408,60c-27,6 -63,10 -80,10c-18,0 -48,5 -68,10c-34,10 -39,17 -142,229c-59,120 -197,402 -308,627c-111,225 -245,499 -299,609c-54,110 -173,353 -265,540c-92,187 -225,457 -295,600c-372,759 -411,835 -470,913c-169,224 -405,366 -679,407c-115,18 -217,18 -331,0z"></path></g></g></g></svg>